<?xml version="1.0" encoding="UTF-8" standalone="no"?>
<!-- Created with Inkscape (http://www.inkscape.org/) -->

<svg
   xmlns:i="http://ns.adobe.com/AdobeIllustrator/10.0/"
   xmlns:dc="http://purl.org/dc/elements/1.1/"
   xmlns:cc="http://creativecommons.org/ns#"
   xmlns:rdf="http://www.w3.org/1999/02/22-rdf-syntax-ns#"
   xmlns:svg="http://www.w3.org/2000/svg"
   xmlns="http://www.w3.org/2000/svg"
   xmlns:xlink="http://www.w3.org/1999/xlink"
   xmlns:sodipodi="http://sodipodi.sourceforge.net/DTD/sodipodi-0.dtd"
   xmlns:inkscape="http://www.inkscape.org/namespaces/inkscape"
   width="96"
   height="96"
   viewBox="0 0 25.400001 25.400001"
   version="1.1"
   id="svg8"
   inkscape:version="0.92.3 (2405546, 2018-03-11)"
   sodipodi:docname="base_plot_window_icon.svg"
   inkscape:export-filename="base_plot_window_icon.png"
   inkscape:export-xdpi="200"
   inkscape:export-ydpi="200">
  <sodipodi:namedview
     id="base"
     pagecolor="#ffffff"
     bordercolor="#666666"
     borderopacity="1.0"
     inkscape:pageopacity="0.0"
     inkscape:pageshadow="2"
     inkscape:zoom="7.7513117"
     inkscape:cx="37.053649"
     inkscape:cy="64.225823"
     inkscape:document-units="mm"
     inkscape:current-layer="layer1"
     showgrid="false"
     fit-margin-top="0"
     fit-margin-left="0"
     fit-margin-right="0"
     fit-margin-bottom="0"
     inkscape:window-width="1680"
     inkscape:window-height="988"
     inkscape:window-x="-8"
     inkscape:window-y="-8"
     inkscape:window-maximized="1"
     units="px" />
  <defs
     id="defs2">
    <linearGradient
       inkscape:collect="always"
       id="linearGradient901">
      <stop
         style="stop-color:#ce0900;stop-opacity:1;"
         offset="0"
         id="stop897" />
      <stop
         style="stop-color:#ce0900;stop-opacity:0;"
         offset="1"
         id="stop899" />
    </linearGradient>
    <linearGradient
       x1="26.648937"
       y1="20.603781"
       x2="135.66525"
       y2="114.39767"
       id="linearGradient1478"
       xlink:href="#linearGradient4689"
       gradientUnits="userSpaceOnUse"
       gradientTransform="matrix(0.562541,0,0,0.567972,-9.399749,-5.305317)" />
    <linearGradient
       id="linearGradient4689">
      <stop
         style="stop-color:#5a9fd4;stop-opacity:1"
         offset="0"
         id="stop4691" />
      <stop
         style="stop-color:#306998;stop-opacity:1"
         offset="1"
         id="stop4693" />
    </linearGradient>
    <linearGradient
       x1="150.96111"
       y1="192.35176"
       x2="112.03144"
       y2="137.27299"
       id="linearGradient1475"
       xlink:href="#linearGradient4671"
       gradientUnits="userSpaceOnUse"
       gradientTransform="matrix(0.562541,0,0,0.567972,-9.399749,-5.305317)" />
    <linearGradient
       id="linearGradient4671">
      <stop
         style="stop-color:#ffd43b;stop-opacity:1"
         offset="0"
         id="stop4673" />
      <stop
         style="stop-color:#ffe873;stop-opacity:1"
         offset="1"
         id="stop4675" />
    </linearGradient>
    <radialGradient
       inkscape:collect="always"
       xlink:href="#linearGradient901"
       id="radialGradient903"
       cx="87.595734"
       cy="67.176422"
       fx="87.595734"
       fy="67.176422"
       r="49.069134"
       gradientTransform="matrix(0.00150105,1.2681808,-1.4116898,0.00177634,167.66749,-54.362343)"
       gradientUnits="userSpaceOnUse" />
    <linearGradient
       inkscape:collect="always"
       xlink:href="#linearGradient4689-9"
       id="linearGradient8697"
       gradientUnits="userSpaceOnUse"
       gradientTransform="translate(638.5845,497.4187)"
       x1="172.94208"
       y1="77.475983"
       x2="26.670298"
       y2="76.313133" />
    <linearGradient
       id="linearGradient4689-9"
       inkscape:collect="always">
      <stop
         id="stop4691-4"
         offset="0"
         style="stop-color:#366a96;stop-opacity:1;" />
      <stop
         id="stop4693-6"
         offset="1"
         style="stop-color:#3679b0;stop-opacity:1" />
    </linearGradient>
    <linearGradient
       inkscape:collect="always"
       xlink:href="#linearGradient4671-2"
       id="linearGradient8699"
       gradientUnits="userSpaceOnUse"
       gradientTransform="translate(638.5845,497.4187)"
       x1="224.23996"
       y1="144.75717"
       x2="-65.308502"
       y2="144.75717" />
    <linearGradient
       id="linearGradient4671-2">
      <stop
         id="stop4673-7"
         offset="0"
         style="stop-color:#ffc836;stop-opacity:1;" />
      <stop
         id="stop4675-7"
         offset="1"
         style="stop-color:#ffe873;stop-opacity:1;" />
    </linearGradient>
    <clipPath
       id="clipPath4644"
       clipPathUnits="userSpaceOnUse">
      <rect
         ry="135.28413"
         y="-63.784012"
         x="78.073708"
         height="425.51147"
         width="425.51147"
         id="rect4646"
         style="opacity:1;fill:none;fill-opacity:1;stroke:#000004;stroke-width:45.16634369;stroke-miterlimit:4;stroke-dasharray:none;stroke-opacity:1" />
    </clipPath>
  </defs>
  <metadata
     id="metadata5">
    <rdf:RDF>
      <cc:Work
         rdf:about="">
        <dc:format>image/svg+xml</dc:format>
        <dc:type
           rdf:resource="http://purl.org/dc/dcmitype/StillImage" />
        <dc:title />
      </cc:Work>
    </rdf:RDF>
  </metadata>
  <g
     inkscape:label="Layer 1"
     inkscape:groupmode="layer"
     id="layer1"
     transform="translate(-46.313496,-58.427313)">
    <rect
       style="fill:none;fill-opacity:1;stroke:#000000;stroke-width:0.41608691;stroke-miterlimit:4;stroke-dasharray:none;stroke-opacity:0.74117647"
       id="rect858"
       width="24.454746"
       height="24.454746"
       x="58.89994"
       y="-71.240868"
       transform="rotate(90)"
       ry="1.49762" />
    <g
       clip-path="url(#clipPath4644)"
       transform="matrix(0.01107019,0,0,0.01107019,65.042128,79.110441)"
       id="g5176">
      <rect
         y="-261.263"
         x="0"
         height="757.79602"
         width="582.91998"
         id="rect6075"
         style="opacity:0.8;fill:#ffffff;fill-opacity:1;stroke:none;stroke-width:3;stroke-miterlimit:4;stroke-dasharray:none;stroke-opacity:0.5" />
      <g
         transform="matrix(1.772991,0,0,1.772991,-1062.907,-953.6594)"
         id="g8691">
        <path
           inkscape:connector-curvature="0"
           style="fill:url(#linearGradient8697);fill-opacity:1"
           i:knockout="Off"
           d="m 716.25486,544.48686 c 0,-13.62285 3.65276,-21.03425 23.82234,-24.56348 13.69344,-2.39988 31.25139,-2.69987 47.62704,0 12.93465,2.13518 23.82234,11.77 23.82234,24.56348 v 44.94482 c 0,13.1817 -10.57006,23.98116 -23.82234,23.98116 H 740.0772 c -16.1639,0 -29.78675,13.78166 -29.78675,29.36324 v 21.56363 H 693.9148 c -13.85226,0 -21.91656,-9.98773 -25.30463,-23.96351 -4.57036,-18.77553 -4.37625,-29.96321 0,-47.94467 3.79393,-15.68745 15.91686,-23.96351 29.76911,-23.96351 h 17.87558 47.64468 v -5.9997 h -47.64468 z"
           id="path7990" />
        <path
           inkscape:connector-curvature="0"
           style="fill:url(#linearGradient8699);fill-opacity:1"
           i:knockout="Off"
           d="m 811.52658,688.32087 c 0,13.62285 -11.82294,20.52251 -23.82234,23.96351 -18.05204,5.18798 -32.53955,4.3939 -47.62704,0 -12.59937,-3.6704 -23.82234,-11.17003 -23.82234,-23.96351 v -44.94482 c 0,-12.93465 10.78181,-23.98116 23.82234,-23.98116 h 47.62704 c 15.86392,0 29.78675,-13.71108 29.78675,-29.96321 v -20.96366 h 17.85794 c 13.86989,0 20.39898,10.30537 23.82234,23.96351 4.76447,18.96964 4.97622,33.15717 0,47.94467 -4.81741,14.36399 -9.97009,23.96351 -23.82234,23.96351 h -23.82235 -47.62704 v 5.9997 h 47.62704 z"
           id="path7992" />
        <path
           inkscape:connector-curvature="0"
           style="fill:#ffffff"
           i:knockout="Off"
           d="m 728.16603,541.50465 c 0,-4.97622 3.98804,-8.99955 8.92897,-8.99955 4.92328,0 8.92896,4.02333 8.92896,8.99955 0,4.95858 -4.00568,8.98191 -8.92896,8.98191 -4.94093,0 -8.92897,-4.02333 -8.92897,-8.98191 z"
           id="path7994" />
        <path
           inkscape:connector-curvature="0"
           style="fill:#ffffff"
           i:knockout="Off"
           d="m 781.75748,691.30308 c 0,-4.95858 4.00568,-8.98191 8.92897,-8.98191 4.94093,0 8.92896,4.02333 8.92896,8.98191 0,4.97622 -3.98803,8.99955 -8.92896,8.99955 -4.92329,0 -8.92897,-4.02333 -8.92897,-8.99955 z"
           id="path7996" />
      </g>
    </g>
    <path
       id="path4682"
       title="sin(x)"
       d="m 50.437413,68.721599 c 0.819884,-2.004759 1.639767,-3.987944 2.459651,-5.238594 0.819883,-1.250651 1.639767,-1.739051 2.45965,-1.293827 0.819884,0.445224 1.639767,1.819385 2.459651,3.625221 0.819883,1.805835 1.639766,4.007785 2.45965,5.814402 0.819883,1.806615 1.639767,3.178242 2.45965,3.62522 0.819884,0.446978 1.639767,-0.04458 2.459651,-1.293826 0.819883,-1.249244 1.639767,-3.233837 2.45965,-5.238596"
       style="opacity:1;fill:none;fill-opacity:1;stroke:#000004;stroke-width:0.35300201;stroke-miterlimit:4;stroke-dasharray:none;stroke-opacity:1"
       inkscape:connector-curvature="0" />
    <path
       style="fill:none;stroke:#000000;stroke-width:0.26458332px;stroke-linecap:butt;stroke-linejoin:miter;stroke-opacity:1"
       d="M 49.112485,61.674342 V 76.659171 H 66.759767"
       id="path4721"
       inkscape:connector-curvature="0"
       sodipodi:nodetypes="ccc" />
    <path
       sodipodi:type="star"
       style="opacity:1;fill:none;fill-opacity:1;stroke:#000004;stroke-width:0.27082121;stroke-miterlimit:4;stroke-dasharray:none;stroke-opacity:1"
       id="path4723"
       sodipodi:sides="3"
       sodipodi:cx="49.123699"
       sodipodi:cy="61.159281"
       sodipodi:r1="0.89358598"
       sodipodi:r2="0.44679299"
       sodipodi:arg1="0.52359878"
       sodipodi:arg2="1.5707963"
       inkscape:flatsided="false"
       inkscape:rounded="0"
       inkscape:randomized="0"
       d="m 49.897567,61.606076 -0.773868,0 -0.773868,0 0.386934,-0.67019 0.386934,-0.670189 0.386934,0.670189 z"
       inkscape:transform-center-y="-0.22339561"
       inkscape:transform-center-x="1.4012156e-006" />
    <path
       sodipodi:type="star"
       style="opacity:1;fill:none;fill-opacity:1;stroke:#000004;stroke-width:0.27082121;stroke-miterlimit:4;stroke-dasharray:none;stroke-opacity:1"
       id="path4723-4"
       sodipodi:sides="3"
       sodipodi:cx="66.964569"
       sodipodi:cy="71.488831"
       sodipodi:r1="0.89358598"
       sodipodi:r2="0.44679296"
       sodipodi:arg1="0.52359878"
       sodipodi:arg2="1.5707963"
       inkscape:flatsided="false"
       inkscape:rounded="0"
       inkscape:randomized="0"
       d="m 67.738437,71.935624 -0.773868,0 -0.773868,0 0.386934,-0.67019 0.386934,-0.670189 0.386934,0.670189 z"
       inkscape:transform-center-x="-0.22339544"
       transform="rotate(90,64.488934,74.206456)" />
  </g>
</svg>
