<?xml version="1.0" encoding="UTF-8" standalone="no"?>
<!-- Created with Inkscape (http://www.inkscape.org/) -->

<svg
   xmlns:i="http://ns.adobe.com/AdobeIllustrator/10.0/"
   xmlns:dc="http://purl.org/dc/elements/1.1/"
   xmlns:cc="http://creativecommons.org/ns#"
   xmlns:rdf="http://www.w3.org/1999/02/22-rdf-syntax-ns#"
   xmlns:svg="http://www.w3.org/2000/svg"
   xmlns="http://www.w3.org/2000/svg"
   xmlns:xlink="http://www.w3.org/1999/xlink"
   xmlns:sodipodi="http://sodipodi.sourceforge.net/DTD/sodipodi-0.dtd"
   xmlns:inkscape="http://www.inkscape.org/namespaces/inkscape"
   width="54mm"
   height="54mm"
   viewBox="0 0 54 54"
   version="1.1"
   id="svg8"
   inkscape:version="0.92.3 (2405546, 2018-03-11)"
   sodipodi:docname="hyperion_logo.svg"
   inkscape:export-filename="logo_hyperion.png"
   inkscape:export-xdpi="200"
   inkscape:export-ydpi="200">
  <defs
     id="defs2">
    <linearGradient
       inkscape:collect="always"
       id="linearGradient901">
      <stop
         style="stop-color:#ce0900;stop-opacity:1;"
         offset="0"
         id="stop897" />
      <stop
         style="stop-color:#ce0900;stop-opacity:0;"
         offset="1"
         id="stop899" />
    </linearGradient>
    <linearGradient
       x1="26.648937"
       y1="20.603781"
       x2="135.66525"
       y2="114.39767"
       id="linearGradient1478"
       xlink:href="#linearGradient4689"
       gradientUnits="userSpaceOnUse"
       gradientTransform="matrix(0.562541,0,0,0.567972,-9.399749,-5.305317)" />
    <linearGradient
       id="linearGradient4689">
      <stop
         style="stop-color:#5a9fd4;stop-opacity:1"
         offset="0"
         id="stop4691" />
      <stop
         style="stop-color:#306998;stop-opacity:1"
         offset="1"
         id="stop4693" />
    </linearGradient>
    <linearGradient
       x1="150.96111"
       y1="192.35176"
       x2="112.03144"
       y2="137.27299"
       id="linearGradient1475"
       xlink:href="#linearGradient4671"
       gradientUnits="userSpaceOnUse"
       gradientTransform="matrix(0.562541,0,0,0.567972,-9.399749,-5.305317)" />
    <linearGradient
       id="linearGradient4671">
      <stop
         style="stop-color:#ffd43b;stop-opacity:1"
         offset="0"
         id="stop4673" />
      <stop
         style="stop-color:#ffe873;stop-opacity:1"
         offset="1"
         id="stop4675" />
    </linearGradient>
    <radialGradient
       inkscape:collect="always"
       xlink:href="#linearGradient901"
       id="radialGradient903"
       cx="87.595734"
       cy="67.176422"
       fx="87.595734"
       fy="67.176422"
       r="49.069134"
       gradientTransform="matrix(0.00150105,1.2681808,-1.4116898,0.00177634,167.66749,-54.362343)"
       gradientUnits="userSpaceOnUse" />
    <linearGradient
       inkscape:collect="always"
       xlink:href="#linearGradient4689-9"
       id="linearGradient8697"
       gradientUnits="userSpaceOnUse"
       gradientTransform="translate(638.5845,497.4187)"
       x1="172.94208"
       y1="77.475983"
       x2="26.670298"
       y2="76.313133" />
    <linearGradient
       id="linearGradient4689-9"
       inkscape:collect="always">
      <stop
         id="stop4691-4"
         offset="0"
         style="stop-color:#366a96;stop-opacity:1;" />
      <stop
         id="stop4693-6"
         offset="1"
         style="stop-color:#3679b0;stop-opacity:1" />
    </linearGradient>
    <linearGradient
       inkscape:collect="always"
       xlink:href="#linearGradient4671-2"
       id="linearGradient8699"
       gradientUnits="userSpaceOnUse"
       gradientTransform="translate(638.5845,497.4187)"
       x1="224.23996"
       y1="144.75717"
       x2="-65.308502"
       y2="144.75717" />
    <linearGradient
       id="linearGradient4671-2">
      <stop
         id="stop4673-7"
         offset="0"
         style="stop-color:#ffc836;stop-opacity:1;" />
      <stop
         id="stop4675-7"
         offset="1"
         style="stop-color:#ffe873;stop-opacity:1;" />
    </linearGradient>
  </defs>
  <sodipodi:namedview
     id="base"
     pagecolor="#ffffff"
     bordercolor="#666666"
     borderopacity="1.0"
     inkscape:pageopacity="0.0"
     inkscape:pageshadow="2"
     inkscape:zoom="6.8203704"
     inkscape:cx="102.04724"
     inkscape:cy="102.04724"
     inkscape:document-units="mm"
     inkscape:current-layer="layer1"
     showgrid="false"
     fit-margin-top="0"
     fit-margin-left="0"
     fit-margin-right="0"
     fit-margin-bottom="0"
     inkscape:window-width="2736"
     inkscape:window-height="1699"
     inkscape:window-x="-32000"
     inkscape:window-y="-32000"
     inkscape:window-maximized="0" />
  <metadata
     id="metadata5">
    <rdf:RDF>
      <cc:Work
         rdf:about="">
        <dc:format>image/svg+xml</dc:format>
        <dc:type
           rdf:resource="http://purl.org/dc/dcmitype/StillImage" />
        <dc:title />
      </cc:Work>
    </rdf:RDF>
  </metadata>
  <g
     inkscape:label="Layer 1"
     inkscape:groupmode="layer"
     id="layer1"
     transform="translate(-46.313496,-29.827317)">
    <rect
       style="fill:#ffffff;fill-opacity:1;stroke:#000000;stroke-width:0.99264711;stroke-miterlimit:4;stroke-dasharray:none;stroke-opacity:0.74117647"
       id="rect858"
       width="52.007355"
       height="52.007355"
       x="30.823639"
       y="-99.317177"
       transform="rotate(90)" />
    <text
       xml:space="preserve"
       style="font-style:normal;font-variant:normal;font-weight:normal;font-stretch:normal;font-size:10.58333302px;line-height:1.25;font-family:'Baskerville Old Face';-inkscape-font-specification:'Baskerville Old Face';letter-spacing:0px;word-spacing:0px;fill:#000000;fill-opacity:1;stroke:none;stroke-width:0.26458332"
       x="52.904942"
       y="43.518837"
       id="text913"><tspan
         sodipodi:role="line"
         id="tspan911"
         x="52.904942"
         y="43.518837"
         style="stroke-width:0.26458332">Hyperion</tspan></text>
    <g
       transform="matrix(0.03940741,0,0,0.03940741,62.487962,58.951535)"
       id="g5176">
      <rect
         y="-261.263"
         x="0"
         height="757.79602"
         width="582.91998"
         id="rect6075"
         style="opacity:0.8;fill:#ffffff;fill-opacity:1;stroke:none;stroke-width:3;stroke-miterlimit:4;stroke-dasharray:none;stroke-opacity:0.5" />
      <g
         id="g10990">
        <path
           inkscape:connector-curvature="0"
           style="fill:#646464;fill-opacity:1"
           id="path46"
           d="m 115.58471,-140.864 c 0,-23.00524 -6.55973,-34.81584 -19.679183,-35.46257 -5.220079,-0.24637 -10.316947,0.58515 -15.275249,2.50995 -3.957392,1.41665 -6.621308,2.81789 -8.022573,4.23457 v 54.91077 c 8.392134,5.26624 15.844984,7.7146 22.34312,7.32964 13.750785,-0.90849 20.633885,-12.07235 20.633885,-33.52236 z m 16.18373,0.9547 c 0,11.6874 -2.74091,21.38841 -8.25355,29.10301 -6.14398,8.73092 -14.6593,13.22726 -25.545977,13.473638 -8.207362,0.261777 -16.661092,-2.309775 -25.361208,-7.699208 v 49.906282 L 58.533548,-60.145465 V -170.92172 c 2.309758,-2.83332 5.281656,-5.26627 8.884889,-7.32966 8.376746,-4.88129 18.555093,-7.39124 30.535077,-7.51443 l 0.200168,0.20019 c 10.948278,-0.13859 19.386628,4.35775 25.315018,13.47361 5.52802,8.36135 8.29974,19.07866 8.29974,32.18271 z"
           i:knockout="Off" />
        <path
           inkscape:connector-curvature="0"
           style="fill:#646464;fill-opacity:1"
           id="path48"
           d="m 217.78403,-107.15686 c 0,15.675602 -1.57064,26.531496 -4.7119,32.567672 -3.15669,6.036186 -9.16207,10.855894 -18.03158,14.443723 -7.19105,2.833307 -14.96725,4.373149 -23.3132,4.634915 l -2.32515,-8.869482 c 8.48452,-1.154882 14.45912,-2.309775 17.92375,-3.464657 6.8215,-2.309752 11.50264,-5.851383 14.07416,-10.594117 2.06339,-3.865005 3.07969,-11.240832 3.07969,-22.158324 v -3.66482 c -9.62402,4.373156 -19.70999,6.544337 -30.2579,6.544337 -6.92929,0 -13.04247,-2.171181 -18.30872,-6.544337 -5.91301,-4.75811 -8.86951,-10.7943 -8.86951,-18.10855 v -58.5756 l 14.07416,-4.81971 v 58.96056 c 0,6.29796 2.0326,11.14847 6.09779,14.55152 4.06517,3.40305 9.33144,5.03527 15.78338,4.91209 6.45194,-0.13858 13.36583,-2.63313 20.71087,-7.51443 v -68.78476 h 14.07416 z"
           i:knockout="Off" />
        <path
           inkscape:connector-curvature="0"
           style="fill:#646464;fill-opacity:1"
           id="path50"
           d="m 272.7256,-98.102585 c -1.67842,0.138583 -3.21826,0.20018 -4.63491,0.20018 -7.961,0 -14.16655,-1.894004 -18.60131,-5.697415 -4.41934,-3.80341 -6.63671,-9.05427 -6.63671,-15.7526 v -55.4343 h -9.63942 v -8.85411 h 9.63942 v -23.51338 l 14.05875,-5.00449 v 28.51787 h 15.81418 v 8.85411 h -15.81418 v 55.04935 c 0,5.28167 1.41666,9.02348 4.24998,11.21006 2.43294,1.80161 6.29795,2.8333 11.5642,3.09507 z"
           i:knockout="Off" />
        <path
           inkscape:connector-curvature="0"
           style="fill:#646464;fill-opacity:1"
           id="path52"
           d="M 357.94047,-99.257455 H 343.86632 V -153.5831 c 0,-5.52803 -1.29347,-10.28614 -3.865,-14.25893 -2.9719,-4.49635 -7.09868,-6.74452 -12.39574,-6.74452 -6.45194,0 -14.52072,3.40306 -24.20631,10.20915 v 65.119945 H 289.3251 V -229.11236 l 14.07417,-4.43475 v 59.14535 c 8.99268,-6.54434 18.81686,-9.82421 29.48796,-9.82421 7.45284,0 13.48902,2.50996 18.10855,7.51443 4.63493,5.0045 6.94469,11.24086 6.94469,18.69369 z"
           i:knockout="Off" />
        <path
           inkscape:connector-curvature="0"
           style="fill:#646464;fill-opacity:1"
           id="path54"
           d="m 432.74601,-143.08137 c 0,-8.83869 -1.67843,-16.13755 -5.01988,-21.91196 -3.9728,-7.03708 -10.14756,-10.74809 -18.49352,-11.13307 -15.42921,0.89311 -23.12842,11.94918 -23.12842,33.13742 0,9.7164 1.60143,17.83137 4.8351,24.3449 4.12678,8.29975 10.31694,12.39574 18.57049,12.25714 15.49081,-0.12318 23.23623,-12.34953 23.23623,-36.69443 z m 15.41382,0.0924 c 0,12.5805 -3.21827,23.05142 -9.63942,31.41277 -7.06786,9.36224 -16.83047,14.058766 -29.2878,14.058766 -12.34952,0 -21.97353,-4.696526 -28.91822,-14.058766 -6.29797,-8.36135 -9.43925,-18.83227 -9.43925,-31.41277 0,-11.82599 3.40306,-21.77337 10.20916,-29.87294 7.19108,-8.59233 16.6457,-12.90389 28.3331,-12.90389 11.6874,0 21.20362,4.31156 28.53328,12.90389 6.8061,8.09957 10.20915,18.04695 10.20915,29.87294 z"
           i:knockout="Off" />
        <path
           inkscape:connector-curvature="0"
           style="fill:#646464;fill-opacity:1"
           id="path56"
           d="m 528.84757,-99.257455 h -14.07416 v -57.405335 c 0,-6.29796 -1.89401,-11.21005 -5.68203,-14.75168 -3.788,-3.52623 -8.83869,-5.23547 -15.13665,-5.09688 -6.6829,0.12319 -13.04245,2.30977 -19.07864,6.54433 v 70.709565 h -14.07416 v -72.449585 c 8.09957,-5.8976 15.55241,-9.74721 22.35851,-11.54882 6.42114,-1.67842 12.08777,-2.50995 16.96907,-2.50995 3.34147,0 6.48273,0.32337 9.43923,0.97011 5.52804,1.27807 10.02437,3.64942 13.48901,7.12946 3.865,3.84962 5.78982,8.46913 5.78982,13.87398 z"
           i:knockout="Off" />
      </g>
      <path
         inkscape:connector-curvature="0"
         id="text2836"
         d="m 116.76306,395.9889 c -6e-5,9.22453 -2.17948,16.87783 -6.53825,22.95991 -4.86573,6.89304 -11.606712,10.44093 -20.222965,10.64366 -6.487602,0.20274 -13.1779,-1.82463 -20.070915,-6.08209 v 39.38156 l -10.947771,-3.95336 0.152052,-87.43012 c 1.824618,-2.23004 4.156085,-4.15604 6.99441,-5.77799 6.588914,-3.85193 14.596998,-5.8286 24.024276,-5.93004 l 0.152053,0.15205 c 8.616253,-0.1013 15.25587,3.44659 19.91886,10.64367 4.35877,6.58899 6.53819,15.05323 6.53825,25.39275 m -12.7724,-0.76027 c -5e-5,-18.14486 -5.22051,-27.47073 -15.661391,-27.97763 -4.156133,-0.20268 -8.210859,0.45621 -12.164191,1.97668 -3.142439,1.11511 -5.27117,2.23015 -6.3862,3.34515 v 43.33493 c 6.690278,4.1561 12.620315,6.0821 17.790129,5.77799 10.947723,-0.70957 16.421603,-9.5286 16.421653,-26.45712 m 82.97547,-1.67257 c -7e-5,9.93411 -2.53427,18.19562 -7.60262,24.78454 -5.57531,7.39988 -13.27929,11.09982 -23.11197,11.09982 -9.73137,0 -17.33398,-3.69994 -22.80785,-11.09982 -4.96705,-6.58892 -7.45057,-14.85043 -7.45057,-24.78454 0,-9.32584 2.68625,-17.18187 8.05878,-23.56812 5.6766,-6.79161 13.12716,-10.18744 22.3517,-10.18751 9.22446,7e-5 16.72571,3.3959 22.50375,10.18751 5.37245,6.38625 8.05871,14.24228 8.05878,23.56812 m -12.16419,0 c -6e-5,-6.99437 -1.31784,-12.77235 -3.95337,-17.33397 -3.14246,-5.5752 -8.00813,-8.51488 -14.59703,-8.81904 -12.16421,0.70964 -18.2463,9.4273 -18.24628,26.15301 h 0.15205 c -2e-5,7.70401 1.26709,14.14089 3.80131,19.31065 3.24376,6.58895 8.10943,9.83273 14.59703,9.73135 12.16414,-0.10136 18.24623,-9.78202 18.24629,-29.042 m 108.55589,-31.32279 -18.09424,63.862 -9.12314,3.1931 -17.48602,-53.06628 -14.29293,49.87318 -9.12314,3.1931 -21.43939,-65.83868 10.18751,-3.64926 17.02987,51.84986 13.53266,-48.2006 10.18751,-3.64926 17.18192,51.84986 14.59703,-51.84986 6.84236,2.43284 m 59.93003,59.75658 c -4.25752,2.73695 -8.05883,4.61226 -11.40393,5.62594 -4.05477,1.21642 -8.16018,1.82463 -12.31624,1.82463 -7.39991,0 -13.27927,-1.87531 -17.63808,-5.62594 -7.90673,-6.69029 -11.80941,-16.01616 -11.70803,-27.97764 0.10136,-9.83267 2.12872,-17.94213 6.08209,-24.32838 4.76429,-7.50118 11.65733,-11.25181 20.67912,-11.25187 16.82709,6e-5 25.3927,11.09988 25.69686,33.29947 h -40.75004 c -0.60823,8.61633 1.01366,15.61073 4.86567,20.98323 3.85197,5.27115 8.92038,7.80536 15.20524,7.60262 5.27111,-0.20273 11.50525,-2.02736 18.70245,-5.47389 l 2.58489,5.32183 m -11.70804,-34.81999 c -4e-5,-5.37247 -1.11509,-9.93404 -3.34515,-13.68472 -2.63561,-4.2574 -6.23418,-6.38614 -10.79572,-6.3862 -9.12316,6e-5 -14.19157,6.63968 -15.20524,19.91887 l 29.34611,0.15205 m 65.51557,-27.06533 c -1.01373,2.02743 -2.48357,5.0178 -4.40952,8.97109 -2.83835,-0.60815 -4.9164,-0.91225 -6.23415,-0.91231 h -0.15205 c -6.08213,6e-5 -11.50532,2.02742 -16.2696,6.0821 v 53.82654 h -11.09983 v -55.34707 c 4.15609,-4.66288 9.42723,-8.1094 15.81345,-10.33956 5.57522,-2.0273 10.54226,-3.04098 14.90113,-3.04105 2.4328,7e-5 4.91632,0.25349 7.45057,0.76026 m 60.52874,61.88532 c -4.25752,2.73695 -8.05883,4.61226 -11.40393,5.62594 -4.05477,1.21642 -8.16018,1.82463 -12.31624,1.82463 -7.39991,0 -13.27926,-1.87531 -17.63808,-5.62594 -7.90673,-6.69029 -11.8094,-16.01616 -11.70803,-27.97764 0.10136,-9.83267 2.12873,-17.94213 6.08209,-24.32838 4.7643,-7.50118 11.65733,-11.25181 20.67913,-11.25187 16.82708,6e-5 25.39269,11.09988 25.69685,33.29947 h -40.75004 c -0.60822,8.61633 1.01367,15.61073 4.86568,20.98323 3.85197,5.27115 8.92037,7.80536 15.20524,7.60262 5.2711,-0.20273 11.50525,-2.02736 18.70244,-5.47389 l 2.58489,5.32183 M 445.9161,387.16986 c -5e-5,-5.37247 -1.1151,-9.93404 -3.34516,-13.68472 -2.63561,-4.2574 -6.23418,-6.38614 -10.79572,-6.3862 -9.12316,6e-5 -14.19157,6.63968 -15.20523,19.91887 l 29.34611,0.15205 m 81.02491,30.41047 c -9.93415,7.70399 -20.5778,11.60667 -31.931,11.70804 -8.41359,0 -15.05321,-3.80131 -19.91887,-11.40393 -4.25747,-6.58892 -6.3862,-14.34358 -6.3862,-23.26402 0,-8.92036 2.28078,-16.77639 6.84236,-23.56811 5.16976,-7.60256 12.0628,-11.35318 20.67912,-11.25188 6.5889,7e-5 13.22852,1.62196 19.91887,4.86568 v -39.07747 l 10.64366,-3.64925 0.15206,95.64094 m -10.79572,-1.21641 v -43.18288 c -6.48762,-4.05467 -12.21492,-6.08204 -17.18192,-6.0821 -6.28486,6e-5 -11.04917,3.29453 -14.29293,9.88341 -2.63559,5.27119 -3.95338,11.40397 -3.95336,18.39834 -2e-5,6.69033 1.26709,12.519 3.80131,17.48602 3.14239,6.48758 7.75464,9.73136 13.83677,9.73135 5.67658,1e-5 11.60662,-2.07804 17.79013,-6.23414"
         style="font-style:normal;font-variant:normal;font-weight:normal;font-stretch:normal;font-size:152.05238342px;line-height:100%;font-family:FluxRegular;text-align:start;writing-mode:lr-tb;text-anchor:start;fill:#2e597d;fill-opacity:1;stroke:none;stroke-width:1px;stroke-linecap:butt;stroke-linejoin:miter;stroke-opacity:1" />
      <g
         transform="matrix(1.772991,0,0,1.772991,-1062.907,-953.6594)"
         id="g8691">
        <path
           inkscape:connector-curvature="0"
           style="fill:url(#linearGradient8697);fill-opacity:1"
           i:knockout="Off"
           d="m 716.25486,544.48686 c 0,-13.62285 3.65276,-21.03425 23.82234,-24.56348 13.69344,-2.39988 31.25139,-2.69987 47.62704,0 12.93465,2.13518 23.82234,11.77 23.82234,24.56348 v 44.94482 c 0,13.1817 -10.57006,23.98116 -23.82234,23.98116 H 740.0772 c -16.1639,0 -29.78675,13.78166 -29.78675,29.36324 v 21.56363 H 693.9148 c -13.85226,0 -21.91656,-9.98773 -25.30463,-23.96351 -4.57036,-18.77553 -4.37625,-29.96321 0,-47.94467 3.79393,-15.68745 15.91686,-23.96351 29.76911,-23.96351 h 17.87558 47.64468 v -5.9997 h -47.64468 z"
           id="path7990" />
        <path
           inkscape:connector-curvature="0"
           style="fill:url(#linearGradient8699);fill-opacity:1"
           i:knockout="Off"
           d="m 811.52658,688.32087 c 0,13.62285 -11.82294,20.52251 -23.82234,23.96351 -18.05204,5.18798 -32.53955,4.3939 -47.62704,0 -12.59937,-3.6704 -23.82234,-11.17003 -23.82234,-23.96351 v -44.94482 c 0,-12.93465 10.78181,-23.98116 23.82234,-23.98116 h 47.62704 c 15.86392,0 29.78675,-13.71108 29.78675,-29.96321 v -20.96366 h 17.85794 c 13.86989,0 20.39898,10.30537 23.82234,23.96351 4.76447,18.96964 4.97622,33.15717 0,47.94467 -4.81741,14.36399 -9.97009,23.96351 -23.82234,23.96351 h -23.82235 -47.62704 v 5.9997 h 47.62704 z"
           id="path7992" />
        <path
           inkscape:connector-curvature="0"
           style="fill:#ffffff"
           i:knockout="Off"
           d="m 728.16603,541.50465 c 0,-4.97622 3.98804,-8.99955 8.92897,-8.99955 4.92328,0 8.92896,4.02333 8.92896,8.99955 0,4.95858 -4.00568,8.98191 -8.92896,8.98191 -4.94093,0 -8.92897,-4.02333 -8.92897,-8.98191 z"
           id="path7994" />
        <path
           inkscape:connector-curvature="0"
           style="fill:#ffffff"
           i:knockout="Off"
           d="m 781.75748,691.30308 c 0,-4.95858 4.00568,-8.98191 8.92897,-8.98191 4.94093,0 8.92896,4.02333 8.92896,8.98191 0,4.97622 -3.98803,8.99955 -8.92896,8.99955 -4.92329,0 -8.92897,-4.02333 -8.92897,-8.99955 z"
           id="path7996" />
      </g>
    </g>
  </g>
</svg>
